<?xml version="1.0" encoding="utf-8"?>
<!-- Generator: Adobe Illustrator 16.0.0, SVG Export Plug-In . SVG Version: 6.00 Build 0)  -->
<!DOCTYPE svg PUBLIC "-//W3C//DTD SVG 1.1//EN" "http://www.w3.org/Graphics/SVG/1.1/DTD/svg11.dtd">
<svg version="1.1" id="Layer_1" xmlns="http://www.w3.org/2000/svg" xmlns:xlink="http://www.w3.org/1999/xlink" x="0px" y="0px"
	 width="113.341px" height="39.921px" viewBox="0 0 113.341 39.921" enable-background="new 0 0 113.341 39.921"
	 xml:space="preserve">
<g>
	<g>
		<path fill="#303030" d="M30.898,10.386c-0.328-0.204-0.784-0.261-1.369-0.17l-2.115,0.329l0.473,3.037l2.149-0.336
			c0.585-0.09,0.997-0.283,1.236-0.575c0.239-0.293,0.317-0.7,0.237-1.222C31.432,10.944,31.228,10.59,30.898,10.386z"/>
		<path fill="#303030" d="M9.216,0l0.603,2.723L7.69,3.295L7.002,0H0v38h14.818l-0.974-5.717l-9.224,1.419l-0.426-2.34l9.225-1.946
			l-1.841-9.276l2.13-0.452l1.84,9.211l9.224-1.847l0.425,2.126l-9.224,2.682L17.03,38H38V0H9.216z M19.926,22.07L17.951,9.403
			l3.234-0.504l1.973,12.667L19.926,22.07z M34.024,14.135c-0.646,0.838-1.678,1.367-3.1,1.59l-2.64,0.41l0.704,4.523l-3.26,0.508
			L23.758,8.499l5.795-0.903c1.468-0.229,2.639-0.062,3.513,0.497s1.411,1.481,1.61,2.766
			C34.887,12.205,34.669,13.299,34.024,14.135z"/>
	</g>
	<g>
		<path fill="#303030" d="M47.131,24.277h-3.316V21.7h3.316V24.277z M43.814,36.125V25.356h3.316v10.769H43.814z"/>
		<path fill="#303030" d="M50.067,36.125V25.356h3.337v1.618c1.186-1.266,2.584-1.898,4.195-1.898c1.879,0,3.196,0.573,3.955,1.719
			c0.427,0.639,0.64,1.771,0.64,3.396v5.934h-3.337V30.91c0-1.132-0.152-1.931-0.458-2.397c-0.347-0.505-0.973-0.759-1.878-0.759
			c-0.959,0-1.719,0.27-2.277,0.809c-0.561,0.539-0.84,1.289-0.84,2.248v5.314H50.067z"/>
		<path fill="#303030" d="M64.933,39.921V25.356h3.315v1.079c0.88-0.906,2.15-1.359,3.816-1.359c1.812,0,3.279,0.527,4.406,1.578
			c1.125,1.053,1.688,2.412,1.688,4.076c0,1.691-0.57,3.061-1.708,4.105c-1.14,1.047-2.622,1.568-4.445,1.568
			c-1.586,0-2.838-0.466-3.757-1.398v4.915H64.933z M68.248,30.751c0,0.933,0.287,1.675,0.859,2.228s1.339,0.829,2.298,0.829
			c0.972,0,1.741-0.276,2.308-0.829c0.565-0.553,0.849-1.303,0.849-2.248c0-0.932-0.286-1.675-0.858-2.228
			c-0.573-0.553-1.34-0.829-2.298-0.829c-0.959,0-1.726,0.28-2.298,0.839C68.535,29.072,68.248,29.818,68.248,30.751z"/>
		<path fill="#303030" d="M80.396,36.125V21.7h3.315v14.425H80.396z"/>
		<path fill="#303030" d="M98.775,25.356v10.769h-3.336v-1.618c-1.158,1.252-2.559,1.878-4.196,1.878
			c-1.878,0-3.196-0.566-3.955-1.699c-0.427-0.639-0.64-1.771-0.64-3.395v-5.935h3.338v5.214c0,1.133,0.15,1.925,0.458,2.378
			c0.347,0.507,0.972,0.759,1.878,0.759c0.96,0,1.719-0.266,2.277-0.799c0.561-0.533,0.84-1.278,0.84-2.238v-5.313H98.775z"/>
		<path fill="#303030" d="M101.054,32.589h3.517c0.093,1.025,1.098,1.538,3.017,1.538c0.719,0,1.282-0.1,1.688-0.299
			c0.406-0.201,0.609-0.453,0.609-0.76s-0.152-0.52-0.459-0.639c-0.241-0.094-0.706-0.174-1.399-0.241l-3.016-0.259
			c-1.119-0.094-2.001-0.439-2.646-1.039c-0.646-0.6-0.97-1.352-0.97-2.258c0-1.172,0.499-2.074,1.498-2.707
			s2.451-0.949,4.355-0.949c1.824,0,3.243,0.315,4.256,0.945c1.011,0.629,1.519,1.485,1.519,2.57v0.101h-3.336
			c-0.16-0.944-1.033-1.419-2.619-1.419c-1.438,0-2.157,0.327-2.157,0.979c0,0.546,0.833,0.886,2.497,1.019l2.338,0.18
			c2.398,0.188,3.597,1.26,3.597,3.217c0,2.625-2.012,3.936-6.035,3.936C103.284,36.504,101.2,35.199,101.054,32.589z"/>
	</g>
</g>
</svg>
